Coordinates
version=1
nRows=5
nColumns=46
inDegrees=yes

Units are S.I. units (second, meters, Newtons, ...)
If the header above contains a line with 'inDegrees', this indicates whether rotational values are in degrees (yes) or radians (no).

endheader 
time	pelvis_tilt	pelvis_list	pelvis_rotation	pelvis_tx	pelvis_ty	pelvis_tz	hip_flexion_l	hip_adduction_l	hip_rotation_l	hip_flexion_r	hip_adduction_r	hip_rotation_r	knee_angle_l	knee_angle_r	ankle_angle_l	ankle_angle_r	subtalar_angle_l	subtalar_angle_r	mtp_angle_l	mtp_angle_r	lumbar_extension	lumbar_bending	lumbar_rotation	arm_flex_l	arm_add_l	arm_rot_l	arm_flex_r	arm_add_r	arm_rot_r	elbow_flex_l	elbow_flex_r	pro_sup_l	pro_sup_r	hip_flexion_l/activation	hip_flexion_r/activation	hip_adduction_l/activation	hip_adduction_r/activation	hip_rotation_l/activation	hip_rotation_r/activation	knee_angle_l/activation	knee_angle_r/activation	ankle_angle_l/activation	ankle_angle_r/activation	subtalar_angle_l/activation	subtalar_angle_r/activation	
          0.58307547	         -8.17157090	         -0.44948621	         -9.19967818	          0.61640984	          0.89057091	         -0.23211001	         36.28483015	         -1.81035163	         -7.36677218	         -8.98484918	          3.77939121	          8.04323962	         11.49149135	         10.65788464	          2.45751356	         11.94181728	          0.36921911	          1.23587305	         -0.29723720	        -23.98381012	          6.92992038	          3.47312829	          8.80362816	        -20.98066025	         -5.79217972	        -12.63315202	          7.99822975	        -18.74020870	          7.03142273	          9.72857152	         42.65298081	         81.36359641	         81.19391312	          3.24924771	         28.71915920	          2.45336769	        -46.22005694	         -0.66377527	         -1.35405200	          2.04542277	         18.38715846	          1.45283764	        -91.21212889	         -0.22669009	          9.39471216	
          0.60322642	         -8.29993783	          0.27629209	         -9.05972947	          0.64541982	          0.88923284	         -0.23114564	         35.52165058	         -0.56819183	         -6.80829193	         -8.70813823	          2.87778812	          7.50479950	         12.57813687	         14.13537132	          1.18498039	          9.31356332	         -0.88866017	          0.56674191	         -0.27794410	        -28.80156832	          7.73776337	          2.21353886	          8.68508199	        -20.49815693	         -6.32035035	        -12.60324541	          6.77262419	        -17.80222688	          6.44433444	          9.84393525	         41.62859316	         81.39127368	         81.39355115	         -0.97024898	         34.37988669	         16.66964155	        -31.87320051	         -4.62273973	          1.77904365	          1.08062504	         11.03856484	          3.49490916	        -91.03769089	          0.23683405	          8.96911107	
          0.62337736	         -8.27578283	          0.94461856	         -8.79543810	          0.67498299	          0.88887263	         -0.23044447	         34.41031869	          0.66088057	         -6.19870629	         -7.93570858	          2.02136398	          6.76908270	         13.89935816	         18.71457413	          0.29363333	          5.91274413	         -2.14559150	         -0.34749830	         -0.25817862	        -33.35722077	          8.31293571	          0.98258394	          8.41647094	        -19.64031703	         -6.99313305	        -12.33344653	          5.50350647	        -16.81441739	          5.98301731	         10.19662206	         40.21564821	         81.45133133	         81.59828819	        -65.44540991	         94.22154265	         24.39895203	        -12.24786647	         -4.23627661	          1.34338734	         31.13846235	        -28.91196957	          0.78617801	        -76.43203307	          0.80279997	          5.54394639	
          0.64352830	         -8.11895373	          1.49774771	         -8.41837695	          0.70487221	          0.88951580	         -0.23006504	         32.94317354	          1.80628318	         -5.54903137	         -6.59569582	          1.25630363	          5.89931263	         15.18191794	         24.35892955	         -0.07080759	          1.93661252	         -3.20413886	         -1.45579440	         -0.24038641	        -35.98005323	          8.63742012	         -0.12107311	          8.02455015	        -18.47837105	         -7.75782451	        -11.86020854	          4.20540002	        -15.83114911	          5.64375748	         10.79098663	         38.48810468	         81.53394276	         81.78151425	       -134.65802344	        160.71919827	         32.39955783	          8.82086994	         -5.24699443	         -0.56561480	         60.40691163	        -75.18509888	         -2.18374849	        -52.66493116	          2.61754924	          3.42381343	
          0.66367925	         -7.86736993	          1.88590803	         -7.95472203	          0.73482552	          0.89130588	         -0.22999399	         31.15923683	          2.83176887	         -4.86440776	         -4.66498120	          0.64429260	          4.96933940	         16.22236489	         30.89535673	          0.11039255	         -2.29202891	         -3.92073672	         -2.66221141	         -0.30834330	        -34.81088797	          8.73019739	         -1.01558982	          7.51539057	        -17.08184245	         -8.56297087	        -11.22958037	          2.87251191	        -14.90212197	          5.39981378	         11.61779878	         36.52925444	         81.62842113	         81.92408499	       -201.88553811	        216.31653305	         38.51136429	         33.50760640	         -6.59157184	         -4.42088071	         88.08830162	       -111.12071631	         -9.68920386	        -16.19400105	          6.81411039	          1.48729235	
